<?xml version="1.0" encoding="UTF-8" standalone="no"?>
<svg
   xmlns:dc="http://purl.org/dc/elements/1.1/"
   xmlns:cc="http://creativecommons.org/ns#"
   xmlns:rdf="http://www.w3.org/1999/02/22-rdf-syntax-ns#"
   xmlns:svg="http://www.w3.org/2000/svg"
   xmlns="http://www.w3.org/2000/svg"
   xmlns:sodipodi="http://sodipodi.sourceforge.net/DTD/sodipodi-0.dtd"
   xmlns:inkscape="http://www.inkscape.org/namespaces/inkscape"
   width="210mm"
   height="297mm"
   viewBox="0 0 210 297"
   version="1.1"
   id="svg8"
   inkscape:version="1.0.2 (e86c870879, 2021-01-15)"
   sodipodi:docname="sources.svg">
  <defs
     id="defs2">
    <clipPath
       clipPathUnits="userSpaceOnUse"
       id="clipPath107">
      <g
         inkscape:label="Clip"
         id="use109">
        <rect
           ry="1.7372519"
           y="60.733738"
           x="157.28813"
           height="25.79151"
           width="24.187893"
           id="rect118"
           style="fill:#808080;stroke-width:0.35957435" />
        <rect
           ry="0.43431294"
           y="64.475517"
           x="159.42628"
           height="2.6058788"
           width="19.777945"
           id="rect120"
           style="fill:#cccccc;stroke-width:0.11495697" />
        <rect
           ry="0.42317677"
           y="68.751839"
           x="159.35947"
           height="2.539062"
           width="19.777945"
           id="rect122"
           style="fill:#cccccc;stroke-width:0.11347361" />
        <rect
           ry="0.42317677"
           y="72.894501"
           x="159.35947"
           height="2.539062"
           width="19.777945"
           id="rect124"
           style="fill:#cccccc;stroke-width:0.11347361" />
        <rect
           ry="0.42317677"
           y="77.354729"
           x="159.44437"
           height="2.539062"
           width="19.777945"
           id="rect126"
           style="fill:#cccccc;stroke-width:0.11347361" />
        <rect
           ry="0.76839972"
           y="78.975052"
           x="159.42766"
           height="4.6104007"
           width="19.777945"
           id="rect128"
           style="fill:#cccccc;stroke-width:0.15290707" />
      </g>
    </clipPath>
    <clipPath
       clipPathUnits="userSpaceOnUse"
       id="clipPath500">
      <g
         id="use502"
         inkscape:label="Clip">
        <path
           style="fill:#ff0000;stroke-width:0.26458332"
           inkscape:connector-curvature="0"
           d="m 95.16329,85.393397 v 91.855653 c 0,3.01202 -2.4339,5.45148 -5.43878,5.45148 H 2.7062304 c -3.00487002,0 -5.43877,-2.43946 -5.43877,-5.45148 V 52.685341 c 0,-3.012016 2.43389998,-5.451475 5.43877,-5.451475 H 57.09292 Z"
           id="path504" />
        <path
           style="fill:#aa0000;stroke-width:0.26458332"
           inkscape:connector-curvature="0"
           d="m 87.00539,77.21645 v 100.0326 c 0,3.01175 -2.4339,5.45148 -5.43877,5.45148 h 8.15789 c 3.00488,0 5.43878,-2.43946 5.43878,-5.45148 V 85.393397 Z"
           id="path506" />
        <path
           style="fill:#ff5555;stroke-width:0.26458332"
           inkscape:connector-curvature="0"
           d="M 95.16329,85.393397 H 62.53143 c -3.00381,0 -5.43877,-2.440781 -5.43877,-5.451474 V 47.233866 Z"
           id="path508" />
        <g
           style="fill:#fafafa"
           id="g528"
           transform="matrix(0.26458333,0,0,0.26458333,-21.51796,47.233866)">
          <g
             id="g514">
            <circle
               cx="156.07201"
               cy="234.366"
               r="15.453"
               id="circle510" />
            <path
               inkscape:connector-curvature="0"
               d="M 355.928,249.819 H 226.125 c -8.534,0 -15.453,-6.918 -15.453,-15.453 0,-8.534 6.918,-15.453 15.453,-15.453 h 129.803 c 8.534,0 15.453,6.918 15.453,15.453 -10e-4,8.534 -6.919,15.453 -15.453,15.453 z"
               id="path512" />
          </g>
          <g
             id="g520">
            <circle
               cx="156.07201"
               cy="296.177"
               r="15.453"
               id="circle516" />
            <path
               inkscape:connector-curvature="0"
               d="M 355.928,311.63 H 226.125 c -8.534,0 -15.453,-6.918 -15.453,-15.453 0,-8.534 6.918,-15.453 15.453,-15.453 h 129.803 c 8.534,0 15.453,6.918 15.453,15.453 -10e-4,8.534 -6.919,15.453 -15.453,15.453 z"
               id="path518" />
          </g>
          <g
             id="g526">
            <circle
               cx="156.07201"
               cy="357.98801"
               r="15.453"
               id="circle522" />
            <path
               inkscape:connector-curvature="0"
               d="M 355.928,373.441 H 226.125 c -8.534,0 -15.453,-6.918 -15.453,-15.453 0,-8.534 6.918,-15.453 15.453,-15.453 h 129.803 c 8.534,0 15.453,6.918 15.453,15.453 -10e-4,8.534 -6.919,15.453 -15.453,15.453 z"
               id="path524" />
          </g>
        </g>
      </g>
    </clipPath>
    <style
       id="style2232">.cls-1,.cls-3{fill:none;}.cls-2{clip-path:url(#clip-path);}.cls-3{stroke:#007af4;stroke-miterlimit:10;stroke-width:33.29px;}.cls-4{clip-path:url(#clip-path-2);}.cls-5{fill:#007af4;}</style>
    <clipPath
       id="clip-path">
      <path
         class="cls-1"
         d="M330.16,590.6l-7.34-.92a113.11,113.11,0,0,1-42.57-210.47,147,147,0,0,1,60-19.19l110.41-10.4a56.52,56.52,0,0,0,23-7.37c4.89-2.83,8.08-6.39,9.76-10.88a24.06,24.06,0,0,0-4.89-24.18c-3.29-3.48-7.62-5.52-13.22-6.22l-7.34-.92A119.6,119.6,0,0,1,353.48,181.59v-6.36H223.05V602.77H350A28.35,28.35,0,0,0,330.16,590.6Z"
         id="path2234" />
    </clipPath>
    <clipPath
       id="clip-path-2">
      <path
         class="cls-1"
         d="M444.55,175.23v6.36a28.38,28.38,0,0,0,24.8,28.11l7.33.92a113.11,113.11,0,0,1,42.57,210.47,147.1,147.1,0,0,1-60,19.19l-110.41,10.4a56.47,56.47,0,0,0-23,7.37c-4.89,2.83-8.09,6.39-9.77,10.87A24,24,0,0,0,321,493.1c3.29,3.49,7.61,5.52,13.22,6.23l7.34.92A119.63,119.63,0,0,1,445,602.77H577V175.23Z"
         id="path2237" />
    </clipPath>
    <style
       id="style2275">.cls-1,.cls-3,.cls-4{fill:none;}.cls-2{fill:#007af4;}.cls-3,.cls-4{stroke:#fff;stroke-miterlimit:10;stroke-width:42px;}.cls-4{stroke-linecap:square;}.cls-5{fill:#fff;}.cls-6{clip-path:url(#clip-path);}.cls-7{clip-path:url(#clip-path-2);}</style>
    <clipPath
       id="clip-path-7">
      <path
         class="cls-1"
         d="M643.47,641.37a149.72,149.72,0,0,1-62.18,68.29,192.74,192.74,0,0,1-78.71,25.19h-.06L363.19,748a63.9,63.9,0,0,0-26,8.32c-6.13,3.55-8.09,7.3-9,9.81a22.89,22.89,0,0,0,4.6,22.72c1.84,1.95,5.1,4.64,12.12,5.52l9.27,1.16c71.75,9,127.46,65.57,137,135.54H650V624.11A147.57,147.57,0,0,1,643.47,641.37Z"
         id="path2277" />
    </clipPath>
    <clipPath
       id="clip-path-2-5">
      <path
         class="cls-1"
         d="M210,712a149.82,149.82,0,0,1,62.18-68.29,192.82,192.82,0,0,1,78.71-25.18H351l139.3-13.12a63.9,63.9,0,0,0,26-8.33c6.13-3.54,8.09-7.29,9-9.8a22.9,22.9,0,0,0-4.59-22.72c-1.85-2-5.11-4.64-12.13-5.52l-9.26-1.17a158.46,158.46,0,0,1-138.49-157v-9.33H203.48v337.7A145.89,145.89,0,0,1,210,712Z"
         id="path2280" />
    </clipPath>
  </defs>
  <sodipodi:namedview
     id="base"
     pagecolor="#ffffff"
     bordercolor="#666666"
     borderopacity="1.0"
     inkscape:pageopacity="0.0"
     inkscape:pageshadow="2"
     inkscape:zoom="0.175"
     inkscape:cx="341.54059"
     inkscape:cy="-30.987405"
     inkscape:document-units="mm"
     inkscape:current-layer="layer1"
     showgrid="false"
     inkscape:window-width="1254"
     inkscape:window-height="679"
     inkscape:window-x="30"
     inkscape:window-y="116"
     inkscape:window-maximized="0"
     inkscape:document-rotation="0" />
  <metadata
     id="metadata5">
    <rdf:RDF>
      <cc:Work
         rdf:about="">
        <dc:format>image/svg+xml</dc:format>
        <dc:type
           rdf:resource="http://purl.org/dc/dcmitype/StillImage" />
        <dc:title />
      </cc:Work>
    </rdf:RDF>
  </metadata>
  <g
     inkscape:label="Layer 1"
     inkscape:groupmode="layer"
     id="layer1">
    <ellipse
       style="fill:#007af4;stroke-width:0.264583;fill-opacity:1"
       id="path1605"
       cx="39.37458"
       cy="49.392559"
       rx="18.287689"
       ry="18.421074"
       inkscape:export-xdpi="96"
       inkscape:export-ydpi="96" />
    <rect
       style="fill:#007af4;stroke-width:0.264583;fill-opacity:1"
       id="rect75"
       width="177.77457"
       height="39.301151"
       x="24.534698"
       y="167.73112" />
    <flowRoot
       xml:space="preserve"
       id="flowRoot153"
       style="font-style:normal;font-weight:normal;font-size:40px;line-height:1.25;font-family:sans-serif;letter-spacing:0px;word-spacing:0px;fill:#007af4;fill-opacity:1;stroke:none;"
       transform="matrix(0.45398298,0,0,0.45398298,-136.00134,9.3366877)"><flowRegion
         id="flowRegion155"
         style="fill:#007af4;fill-opacity:1;"><rect
           id="rect157"
           width="334.3605"
           height="70.710693"
           x="443.45697"
           y="155.8037"
           style="fill:#007af4;fill-opacity:1;" /></flowRegion><flowPara
         id="flowPara159"
         style="font-style:normal;font-variant:normal;font-weight:normal;font-stretch:normal;font-size:53.3333px;font-family:bombing;-inkscape-font-specification:bombing;fill:#007af4;fill-opacity:1;">Recoil Model</flowPara></flowRoot>
    <flowRoot
       xml:space="preserve"
       id="flowRoot708"
       style="font-style:normal;font-weight:normal;font-size:40px;line-height:1.25;font-family:sans-serif;letter-spacing:0px;word-spacing:0px;fill:#000000;fill-opacity:1;stroke:none"><flowRegion
         id="flowRegion710"><rect
           id="rect712"
           width="158.57143"
           height="115.71429"
           x="351.42856"
           y="642.51971" /></flowRegion><flowPara
         id="flowPara714" /></flowRoot>
    <path
       style="fill:#007af4;stroke-width:0.0921003;fill-opacity:1"
       d="m 47.523217,108.58506 c -0.476277,-0.0457 -1.005754,-0.12923 -1.176611,-0.18561 -0.170863,-0.0563 -0.900203,-0.13669 -1.620763,-0.17843 -0.763506,-0.0442 -1.473808,-0.13543 -1.70247,-0.21858 -0.215799,-0.0785 -0.711513,-0.17161 -1.101587,-0.20696 -0.676151,-0.0613 -0.729584,-0.0833 -1.145661,-0.47249 -0.307199,-0.28736 -0.482494,-0.54897 -0.591984,-0.88352 -0.08555,-0.26142 -0.250041,-0.66408 -0.365527,-0.89484 -0.115487,-0.23074 -0.240284,-0.58302 -0.277325,-0.78285 -0.03704,-0.19982 -0.14405,-0.58739 -0.237792,-0.86126 -0.117959,-0.34463 -0.170443,-0.76178 -0.170443,-1.3548 0,-0.47127 -0.06426,-1.2626 -0.142795,-1.75852 -0.119181,-0.75257 -0.137391,-1.701196 -0.110117,-5.736955 1.023954,-5.214043 -0.323198,-12.120345 4.39743,-14.81994 1.670275,-0.419655 3.606798,-0.213764 5.555242,-0.249452 2.923933,-0.05356 5.874714,-0.134755 7.992874,0.438698 0.794386,0.521164 2.167242,2.298836 3.312823,4.289671 l 0.454803,0.790376 0.0506,4.383897 c 0.02785,2.411142 0.01731,6.663737 -0.02343,9.450208 l -0.07402,5.066307 -0.662836,1.33469 c -0.364563,0.73407 -0.718947,1.40384 -0.787525,1.48836 -0.141348,0.17421 -1.561281,0.75492 -2.187615,0.89468 -0.808849,0.18048 -3.019435,0.37056 -4.881338,0.41973 -1.038432,0.0275 -2.281793,0.068 -2.76302,0.0903 -0.481226,0.0222 -1.264636,0.003 -1.740912,-0.0427 z m 10.060136,-2.18569 c 0.503052,-0.27379 0.736577,-0.659 1.249477,-2.06106 0.490172,-1.33993 0.562106,-2.0054 0.562246,-5.20133 0.09903,-3.027824 0.275978,-5.321317 0.276428,-7.131897 0,-2.219644 -0.03352,-4.056441 -0.07452,-4.081769 -0.04098,-0.02534 -0.610854,-0.07207 -1.266383,-0.103869 -0.72768,-0.0353 -1.586439,-0.146054 -2.204975,-0.284381 -0.55721,-0.124615 -1.096562,-0.24443 -1.198561,-0.266263 -0.219069,-0.04688 -0.98557,-0.705847 -1.197799,-1.029748 -0.29966,-0.45734 -0.41899,-1.384563 -0.412846,-3.207944 l 0.0058,-1.749913 -3.663881,0.01529 c -2.015137,0.0084 -4.301281,0.04333 -5.080322,0.07759 -1.879067,0.08265 -1.894105,0.09115 -2.295756,1.296171 -0.167459,0.502402 -0.383822,1.435966 -0.480806,2.074589 -0.09699,0.638618 -0.218232,1.271313 -0.269434,1.405988 -0.0512,0.134672 -0.134535,0.682246 -0.18519,1.216832 -0.05066,0.534587 -0.179745,1.248868 -0.286867,1.587284 -0.139928,0.442053 -0.212834,0.991343 -0.258915,1.950769 -0.03528,0.734505 -0.111036,1.420089 -0.168351,1.523526 -0.22164,0.400009 -0.298281,1.808942 -0.322919,5.936628 -0.0268,4.489667 0.0444,5.781077 0.351022,6.367117 0.08926,0.1706 0.173721,0.41097 0.187683,0.53417 0.04652,0.4103 0.492466,0.74075 1.192625,0.88371 4.715357,0.6694 8.501046,0.88211 13.216434,0.94945 1.46915,0.0366 1.310277,-0.14034 2.325723,-0.70094 z M 41.254964,99.691839 c 0.0055,-0.127334 0.796652,-0.680525 0.982615,-0.687105 0.135556,-0.0047 0.129465,-0.02017 -0.03408,-0.08614 -0.378482,-0.152623 -0.346286,-0.810545 0.0412,-0.841752 0.394405,-0.03175 6.330388,-0.08889 9.874555,-0.09503 5.454858,-0.0095 6.262847,0.08762 6.262847,0.752454 0,0.518706 -0.233173,0.576797 -2.233983,0.556632 -0.974817,-0.0098 -2.497689,0.02564 -3.384161,0.07883 -0.886466,0.05319 -3.435352,0.140801 -5.664189,0.194689 -2.228837,0.05389 -4.456522,0.123196 -4.95041,0.154006 -0.510902,0.03185 -0.896433,0.02038 -0.89439,-0.02659 z m 11.27874,-5.782019 c -0.162617,-0.125208 -0.740068,-0.135196 -4.927387,-0.08522 -2.608753,0.03113 -4.981494,0.02654 -5.272764,-0.01025 -0.499432,-0.06301 -0.529577,-0.08116 -0.529577,-0.318883 0,-0.138637 0.05877,-0.332521 0.13061,-0.430851 0.123995,-0.169728 0.323301,-0.182668 3.937301,-0.255635 2.093681,-0.04227 5.694337,-0.08372 8.001452,-0.0921 3.875972,-0.0141 4.213689,-0.0028 4.443858,0.148056 0.33126,0.217161 0.331225,0.561484 -7.6e-5,0.778609 -0.203488,0.133356 -0.553889,0.175694 -1.911088,0.230903 -0.914054,0.03717 -2.117811,0.09225 -2.675021,0.122375 -0.83127,0.04494 -1.046171,0.0293 -1.197308,-0.08705 z m 0.184199,-4.495261 c -0.96245,-0.04457 -3.67712,-0.05855 -6.032594,-0.03109 -3.422376,0.03992 -4.313176,0.02603 -4.434502,-0.06915 -0.229097,-0.179712 -0.04468,-1.065654 0.233375,-1.121152 0.107113,-0.02137 3.158088,-0.06313 6.779948,-0.0928 5.907663,-0.04837 6.60652,-0.03896 6.792425,0.09153 0.393384,0.276103 0.177685,0.871805 -0.315677,0.871805 -0.139308,0 -0.306478,0.09285 -0.414559,0.230249 -0.139944,0.177913 -0.25811,0.227001 -0.519809,0.215946 -0.186281,-0.0079 -1.126153,-0.05077 -2.088607,-0.09534 z m 6.953601,-2.653548 c 0,-0.395688 -0.07996,-0.600332 -0.566762,-1.450587 C 58.495099,84.245621 57.328971,82.511646 56.869117,81.98617 56.713476,81.808317 56.343264,81.483687 56.046421,81.264772 55.58843,80.92701 55.440437,80.866743 55.069,80.866743 h -0.437715 l -0.19686,0.924512 c -0.264115,1.240362 -0.276423,3.174104 -0.02374,3.73038 0.356133,0.784026 1.162333,1.211869 2.622548,1.391759 0.564582,0.06956 1.275184,0.162092 1.579115,0.205641 1.089084,0.156053 1.059158,0.166169 1.059158,-0.358024 z"
       id="path89"
       sodipodi:nodetypes="ssssssssssssccscsccccsssscsscscccssssccsssssssssssscccsssccscsscsssccsssccssssssscsssssssssssscssssss" />
    <flowRoot
       xml:space="preserve"
       id="flowRoot153-3"
       style="font-style:normal;font-weight:normal;font-size:40px;line-height:1.25;font-family:sans-serif;letter-spacing:0px;word-spacing:0px;fill:#e6e6e6;fill-opacity:1;stroke:none;"
       transform="matrix(0.45398298,0,0,0.45398298,-123.29452,99.187035)"><flowRegion
         id="flowRegion155-6"
         style="fill:#e6e6e6;"><rect
           id="rect157-7"
           width="334.3605"
           height="70.710693"
           x="443.45697"
           y="155.8037"
           style="fill:#e6e6e6;" /></flowRegion><flowPara
         id="flowPara159-5"
         style="font-style:normal;font-variant:normal;font-weight:normal;font-stretch:normal;font-size:53.3333px;font-family:bombing;-inkscape-font-specification:bombing;fill:#e6e6e6;">Recoil Model</flowPara></flowRoot>
    <path
       style="fill:#e6e6e6;stroke-width:0.0921003"
       d="m 59.160953,200.46754 c -0.476277,-0.0457 -1.005754,-0.12923 -1.176611,-0.18561 -0.170863,-0.0563 -0.900203,-0.13669 -1.620763,-0.17843 -0.763506,-0.0442 -1.473808,-0.13543 -1.70247,-0.21858 -0.215799,-0.0785 -0.711513,-0.17161 -1.101587,-0.20696 -0.676151,-0.0613 -0.729584,-0.0833 -1.145661,-0.47249 -0.307199,-0.28736 -0.482494,-0.54897 -0.591984,-0.88352 -0.08555,-0.26142 -0.250041,-0.66408 -0.365527,-0.89484 -0.115487,-0.23074 -0.240284,-0.58302 -0.277325,-0.78285 -0.03704,-0.19982 -0.14405,-0.58739 -0.237792,-0.86126 -0.117959,-0.34463 -0.170443,-0.76178 -0.170443,-1.3548 0,-0.47127 -0.06426,-1.2626 -0.142795,-1.75852 -0.119181,-0.75257 -0.137391,-1.70119 -0.110117,-5.73695 1.023954,-5.21405 -0.323198,-12.12035 4.39743,-14.81994 1.670275,-0.41966 3.606798,-0.21377 5.555242,-0.24945 2.923933,-0.0536 5.874714,-0.13476 7.992874,0.43869 0.794386,0.52117 2.167242,2.29884 3.312823,4.28967 l 0.454803,0.79038 0.0506,4.3839 c 0.02785,2.41114 0.01731,6.66373 -0.02343,9.45021 l -0.07402,5.0663 -0.662836,1.33469 c -0.364563,0.73407 -0.718947,1.40384 -0.787525,1.48836 -0.141348,0.17421 -1.561281,0.75492 -2.187615,0.89468 -0.808849,0.18048 -3.019435,0.37056 -4.881338,0.41973 -1.038432,0.0275 -2.281793,0.068 -2.76302,0.0903 -0.481226,0.0222 -1.264636,0.003 -1.740912,-0.0427 z m 10.060136,-2.18569 c 0.503052,-0.27379 0.736577,-0.659 1.249477,-2.06106 0.490172,-1.33993 0.562106,-2.0054 0.562246,-5.20133 0.09903,-3.02782 0.275978,-5.32131 0.276428,-7.13189 0,-2.21965 -0.03352,-4.05645 -0.07452,-4.08177 -0.04098,-0.0253 -0.610854,-0.0721 -1.266383,-0.10387 -0.72768,-0.0353 -1.586439,-0.14606 -2.204975,-0.28438 -0.55721,-0.12462 -1.096562,-0.24443 -1.198561,-0.26627 -0.219069,-0.0469 -0.98557,-0.70584 -1.197799,-1.02974 -0.29966,-0.45734 -0.41899,-1.38457 -0.412846,-3.20795 l 0.0058,-1.74991 -3.663881,0.0153 c -2.015137,0.008 -4.301281,0.0433 -5.080322,0.0776 -1.879067,0.0827 -1.894105,0.0911 -2.295756,1.29617 -0.167459,0.5024 -0.383822,1.43597 -0.480806,2.07459 -0.09699,0.63862 -0.218232,1.27131 -0.269434,1.40599 -0.0512,0.13467 -0.134535,0.68224 -0.18519,1.21683 -0.05066,0.53459 -0.179745,1.24887 -0.286867,1.58728 -0.139928,0.44206 -0.212834,0.99135 -0.258915,1.95077 -0.03528,0.73451 -0.111036,1.42009 -0.168351,1.52353 -0.22164,0.40001 -0.298281,1.80894 -0.322919,5.93663 -0.0268,4.48966 0.0444,5.78107 0.351022,6.36711 0.08926,0.1706 0.173721,0.41097 0.187683,0.53417 0.04652,0.4103 0.492466,0.74075 1.192625,0.88371 4.715357,0.6694 8.501046,0.88211 13.216434,0.94945 1.46915,0.0366 1.310277,-0.14034 2.325723,-0.70094 z M 52.8927,191.57432 c 0.0055,-0.12733 0.796652,-0.68052 0.982615,-0.6871 0.135556,-0.005 0.129465,-0.0202 -0.03408,-0.0861 -0.378482,-0.15263 -0.346286,-0.81055 0.0412,-0.84176 0.394405,-0.0317 6.330388,-0.0889 9.874555,-0.095 5.454858,-0.01 6.262847,0.0876 6.262847,0.75246 0,0.5187 -0.233173,0.5768 -2.233983,0.55663 -0.974817,-0.01 -2.497689,0.0256 -3.384161,0.0788 -0.886466,0.0532 -3.435352,0.1408 -5.664189,0.19469 -2.228837,0.0539 -4.456522,0.1232 -4.95041,0.15401 -0.510902,0.0318 -0.896433,0.0204 -0.89439,-0.0266 z m 11.27874,-5.78202 c -0.162617,-0.12521 -0.740068,-0.13519 -4.927387,-0.0852 -2.608753,0.0311 -4.981494,0.0265 -5.272764,-0.0102 -0.499432,-0.063 -0.529577,-0.0812 -0.529577,-0.31888 0,-0.13864 0.05877,-0.33252 0.13061,-0.43085 0.123995,-0.16973 0.323301,-0.18267 3.937301,-0.25564 2.093681,-0.0423 5.694337,-0.0837 8.001452,-0.0921 3.875972,-0.0141 4.213689,-0.003 4.443858,0.14806 0.33126,0.21716 0.331225,0.56148 -7.6e-5,0.77861 -0.203488,0.13335 -0.553889,0.17569 -1.911088,0.2309 -0.914054,0.0372 -2.117811,0.0922 -2.675021,0.12238 -0.83127,0.0449 -1.046171,0.0293 -1.197308,-0.0871 z m 0.184199,-4.49526 c -0.96245,-0.0446 -3.67712,-0.0585 -6.032594,-0.0311 -3.422376,0.0399 -4.313176,0.026 -4.434502,-0.0692 -0.229097,-0.17971 -0.04468,-1.06565 0.233375,-1.12115 0.107113,-0.0214 3.158088,-0.0631 6.779948,-0.0928 5.907663,-0.0484 6.60652,-0.039 6.792425,0.0915 0.393384,0.2761 0.177685,0.8718 -0.315677,0.8718 -0.139308,0 -0.306478,0.0928 -0.414559,0.23025 -0.139944,0.17792 -0.25811,0.227 -0.519809,0.21595 -0.186281,-0.008 -1.126153,-0.0508 -2.088607,-0.0953 z m 6.953601,-2.65355 c 0,-0.39568 -0.07996,-0.60033 -0.566762,-1.45058 -0.609643,-1.06481 -1.775771,-2.79878 -2.235625,-3.32426 -0.155641,-0.17785 -0.525853,-0.50248 -0.822696,-0.7214 -0.457991,-0.33776 -0.605984,-0.39802 -0.977421,-0.39802 h -0.437715 l -0.19686,0.92451 c -0.264115,1.24036 -0.276423,3.1741 -0.02374,3.73038 0.356133,0.78402 1.162333,1.21187 2.622548,1.39176 0.564582,0.0696 1.275184,0.16209 1.579115,0.20564 1.089084,0.15605 1.059158,0.16617 1.059158,-0.35803 z"
       id="path89-3"
       sodipodi:nodetypes="ssssssssssssccscsccccsssscsscscccssssccsssssssssssscccsssccscsscsssccsssccssssssscsssssssssssscssssss" />
    <path
       style="fill:#e6e6e6;fill-opacity:1;stroke-width:0.0921003"
       d="m 37.529731,63.884475 c -0.476277,-0.0457 -1.005754,-0.12923 -1.176611,-0.18561 -0.170863,-0.0563 -0.900203,-0.13669 -1.620763,-0.17843 -0.763506,-0.0442 -1.473808,-0.13543 -1.70247,-0.21858 -0.215799,-0.0785 -0.711513,-0.17161 -1.101587,-0.20696 -0.676151,-0.0613 -0.729584,-0.0833 -1.145661,-0.47249 -0.307199,-0.28736 -0.482494,-0.54897 -0.591984,-0.88352 -0.08555,-0.26142 -0.250041,-0.66408 -0.365527,-0.89484 -0.115487,-0.23074 -0.240284,-0.58302 -0.277325,-0.78285 -0.03704,-0.19982 -0.14405,-0.58739 -0.237792,-0.86126 -0.117959,-0.34463 -0.170443,-0.76178 -0.170443,-1.3548 0,-0.47127 -0.06426,-1.2626 -0.142795,-1.75852 -0.119181,-0.75257 -0.137391,-1.7012 -0.110117,-5.736954 1.023954,-5.214043 -0.323198,-12.120345 4.39743,-14.81994 1.670275,-0.419655 3.606798,-0.213764 5.555242,-0.249452 2.923931,-0.05356 5.874721,-0.134755 7.992881,0.438698 0.79438,0.521164 2.16724,2.298836 3.31282,4.289671 l 0.4548,0.790376 0.0506,4.383897 c 0.0279,2.411142 0.0173,6.663737 -0.0234,9.450204 l -0.074,5.06631 -0.66283,1.33469 c -0.36457,0.73407 -0.71895,1.40384 -0.78753,1.48836 -0.14135,0.17421 -1.56128,0.75492 -2.18761,0.89468 -0.80885,0.18048 -3.01944,0.37056 -4.88134,0.41973 -1.038437,0.0275 -2.281798,0.068 -2.763025,0.0903 -0.481226,0.0222 -1.264636,0.003 -1.740912,-0.0427 z m 10.060138,-2.18569 c 0.50305,-0.27379 0.73658,-0.659 1.24948,-2.06106 0.49017,-1.33993 0.5621,-2.0054 0.56224,-5.20133 0.099,-3.027823 0.27598,-5.321316 0.27643,-7.131896 0,-2.219644 -0.0335,-4.056441 -0.0745,-4.081769 -0.041,-0.02534 -0.61085,-0.07207 -1.26638,-0.103869 -0.72768,-0.0353 -1.58644,-0.146054 -2.20498,-0.284381 -0.55721,-0.124615 -1.09656,-0.24443 -1.19856,-0.266263 -0.21907,-0.04688 -0.98557,-0.705847 -1.1978,-1.029748 -0.29966,-0.45734 -0.41899,-1.384563 -0.41284,-3.207944 l 0.006,-1.749913 -3.663886,0.01529 c -2.015137,0.0084 -4.301281,0.04333 -5.080322,0.07759 -1.879067,0.08265 -1.894105,0.09115 -2.295756,1.296171 -0.167459,0.502402 -0.383822,1.435966 -0.480806,2.074589 -0.09699,0.638618 -0.218232,1.271313 -0.269434,1.405988 -0.0512,0.134672 -0.134535,0.682246 -0.18519,1.216832 -0.05066,0.534587 -0.179745,1.248868 -0.286867,1.587284 -0.139928,0.442053 -0.212834,0.991343 -0.258915,1.950769 -0.03528,0.734505 -0.111036,1.420089 -0.168351,1.523526 -0.22164,0.400009 -0.298281,1.808942 -0.322919,5.936628 -0.0268,4.489666 0.0444,5.781076 0.351022,6.367116 0.08926,0.1706 0.173721,0.41097 0.187683,0.53417 0.04652,0.4103 0.492466,0.74075 1.192625,0.88371 4.715357,0.6694 8.501046,0.88211 13.216436,0.94945 1.46915,0.0366 1.31028,-0.14034 2.32572,-0.70094 z m -16.328391,-6.70753 c 0.0055,-0.12733 0.796652,-0.68053 0.982615,-0.68711 0.135556,-0.005 0.129465,-0.0202 -0.03408,-0.0861 -0.378482,-0.152618 -0.346286,-0.81054 0.0412,-0.841747 0.394405,-0.03175 6.330388,-0.08889 9.874556,-0.09503 5.45486,-0.0095 6.26285,0.08762 6.26285,0.752454 0,0.518703 -0.23317,0.576793 -2.23398,0.556633 -0.97482,-0.01 -2.4977,0.0256 -3.38417,0.0788 -0.88646,0.0532 -3.43535,0.1408 -5.664187,0.19469 -2.228837,0.0539 -4.456522,0.12319 -4.95041,0.154 -0.510902,0.0318 -0.896433,0.0204 -0.89439,-0.0266 z m 11.278741,-5.782019 c -0.16262,-0.125208 -0.74007,-0.135196 -4.927388,-0.08522 -2.608753,0.03113 -4.981494,0.02654 -5.272764,-0.01025 -0.499432,-0.06301 -0.529577,-0.08116 -0.529577,-0.318883 0,-0.138637 0.05877,-0.332521 0.13061,-0.430851 0.123995,-0.169728 0.323301,-0.182668 3.937301,-0.255635 2.093681,-0.04227 5.694338,-0.08372 8.001458,-0.0921 3.87597,-0.0141 4.21369,-0.0028 4.44385,0.148056 0.33126,0.217161 0.33123,0.561484 -7e-5,0.778609 -0.20349,0.133356 -0.55389,0.175694 -1.91109,0.230903 -0.91405,0.03717 -2.11781,0.09225 -2.67502,0.122375 -0.83127,0.04494 -1.04617,0.0293 -1.19731,-0.08705 z m 0.1842,-4.495261 c -0.96245,-0.04457 -3.677122,-0.05855 -6.032596,-0.03109 -3.422376,0.03992 -4.313176,0.02603 -4.434502,-0.06915 -0.229097,-0.179712 -0.04468,-1.065654 0.233375,-1.121152 0.107113,-0.02137 3.158088,-0.06313 6.779948,-0.0928 5.907665,-0.04837 6.606525,-0.03896 6.792425,0.09153 0.39339,0.276103 0.17769,0.871805 -0.31567,0.871805 -0.13931,0 -0.30648,0.09285 -0.41456,0.230249 -0.13995,0.177913 -0.25811,0.227001 -0.51981,0.215946 -0.18628,-0.0079 -1.12616,-0.05077 -2.08861,-0.09534 z m 6.9536,-2.653548 c 0,-0.395688 -0.08,-0.600332 -0.56676,-1.450587 -0.60964,-1.064803 -1.77577,-2.798778 -2.23563,-3.324254 -0.15564,-0.177853 -0.52585,-0.502483 -0.82269,-0.721398 -0.45799,-0.337762 -0.60598,-0.398029 -0.97742,-0.398029 h -0.43772 l -0.19686,0.924512 c -0.26411,1.240362 -0.27642,3.174104 -0.0237,3.73038 0.35614,0.784026 1.16234,1.211869 2.62255,1.391759 0.56458,0.06956 1.27519,0.162092 1.57912,0.205641 1.08908,0.156053 1.05915,0.166169 1.05915,-0.358024 z"
       id="path89-36"
       sodipodi:nodetypes="ssssssssssssccscsccccsssscsscscccssssccsssssssssssscccsssccscsscsssccsssccssssssscsssssssssssscssssss"
       inkscape:export-xdpi="96"
       inkscape:export-ydpi="96" />
  </g>
</svg>
