<?xml version="1.0" encoding="UTF-8" standalone="no"?>
<svg
   xmlns:dc="http://purl.org/dc/elements/1.1/"
   xmlns:cc="http://creativecommons.org/ns#"
   xmlns:rdf="http://www.w3.org/1999/02/22-rdf-syntax-ns#"
   xmlns:svg="http://www.w3.org/2000/svg"
   xmlns="http://www.w3.org/2000/svg"
   xmlns:sodipodi="http://sodipodi.sourceforge.net/DTD/sodipodi-0.dtd"
   xmlns:inkscape="http://www.inkscape.org/namespaces/inkscape"
   data-name="Calque 1"
   version="1.1"
   viewBox="0 0 800 800"
   id="svg16"
   sodipodi:docname="logo.svg"
   inkscape:version="1.0.2 (e86c870879, 2021-01-15)"
   inkscape:export-filename="/mnt/668D831B02B7FF13/recoil-model/logo/SVG/logo.png"
   inkscape:export-xdpi="96"
   inkscape:export-ydpi="96">
  <sodipodi:namedview
     pagecolor="#ffffff"
     bordercolor="#666666"
     borderopacity="1"
     objecttolerance="10"
     gridtolerance="10"
     guidetolerance="10"
     inkscape:pageopacity="0"
     inkscape:pageshadow="2"
     inkscape:window-width="1440"
     inkscape:window-height="837"
     id="namedview18"
     showgrid="false"
     inkscape:zoom="0.5875"
     inkscape:cx="77.446809"
     inkscape:cy="400"
     inkscape:window-x="0"
     inkscape:window-y="30"
     inkscape:window-maximized="1"
     inkscape:current-layer="svg16"
     inkscape:document-rotation="0" />
  <metadata
     id="metadata2">
    <rdf:RDF>
      <cc:Work
         rdf:about="">
        <dc:format>image/svg+xml</dc:format>
        <dc:type
           rdf:resource="http://purl.org/dc/dcmitype/StillImage" />
        <dc:title />
      </cc:Work>
    </rdf:RDF>
  </metadata>
  <defs
     id="defs12">
    <style
       id="style4">.cls-1,.cls-3{fill:none;}.cls-2{clip-path:url(#clip-path);}.cls-3{stroke:#007af4;stroke-miterlimit:10;stroke-width:33.29px;}.cls-4{clip-path:url(#clip-path-2);}.cls-5{fill:#007af4;}</style>
    <clipPath
       id="clip-path">
      <path
         class="cls-1"
         d="M330.16,590.6l-7.34-.92a113.11,113.11,0,0,1-42.57-210.47,147,147,0,0,1,60-19.19l110.41-10.4a56.52,56.52,0,0,0,23-7.37c4.89-2.83,8.08-6.39,9.76-10.88a24.06,24.06,0,0,0-4.89-24.18c-3.29-3.48-7.62-5.52-13.22-6.22l-7.34-.92A119.6,119.6,0,0,1,353.48,181.59v-6.36H223.05V602.77H350A28.35,28.35,0,0,0,330.16,590.6Z"
         id="path6" />
    </clipPath>
    <clipPath
       id="clip-path-2">
      <path
         class="cls-1"
         d="M444.55,175.23v6.36a28.38,28.38,0,0,0,24.8,28.11l7.33.92a113.11,113.11,0,0,1,42.57,210.47,147.1,147.1,0,0,1-60,19.19l-110.41,10.4a56.47,56.47,0,0,0-23,7.37c-4.89,2.83-8.09,6.39-9.77,10.87A24,24,0,0,0,321,493.1c3.29,3.49,7.61,5.52,13.22,6.23l7.34.92A119.63,119.63,0,0,1,445,602.77H577V175.23Z"
         id="path9" />
    </clipPath>
  </defs>
  <path
     d="m350.25 715.65c-11.926-1.0864-25.183-3.072-29.462-4.4123-4.2784-1.3383-22.54-3.2494-40.582-4.2416-19.118-1.0507-36.903-3.2194-42.628-5.1961-5.4033-1.8661-17.816-4.0795-27.583-4.9198-16.93-1.4572-18.268-1.9802-28.687-11.232-7.6916-6.8311-12.081-13.05-14.823-21.003-2.1418-6.2144-6.2606-15.786-9.1524-21.272-2.8918-5.4851-6.0168-13.86-6.9443-18.61-0.92749-4.7501-3.6066-13.963-5.9538-20.474-2.9534-8.1925-4.2678-18.109-4.2678-32.206 0-11.203-1.6092-30.014-3.5755-41.803-2.9839-17.89-3.4403-40.441-2.7573-136.38 25.639-123.95-8.0924-288.12 110.11-352.3 41.823-9.976 90.311-5.0815 139.1-5.9299 73.213-1.2732 147.1-3.2034 200.14 10.429 19.891 12.389 54.266 54.648 82.95 101.97l11.388 18.789 1.2667 104.21c0.6976 57.317 0.4306 158.41-0.5896 224.65l-1.853 120.44-16.597 31.728c-9.1286 17.45-18.002 33.372-19.719 35.381-3.5391 4.1414-39.093 17.946-54.776 21.268-20.253 4.2904-75.605 8.8089-122.22 9.9778-26.002 0.65375-57.134 1.6165-69.184 2.1466-12.049 0.5277-31.665 0.0711-43.591-1.015zm251.9-51.958c12.596-6.5085 18.443-15.666 31.286-48.995 12.273-31.853 14.074-47.672 14.078-123.65 2.4797-71.977 6.9099-126.5 6.9211-169.54 0-52.765-0.8387-96.429-1.8656-97.031-1.0262-0.60255-15.295-1.7132-31.709-2.4691-18.221-0.83917-39.723-3.472-55.211-6.7603-13.952-2.9624-27.457-5.8106-30.011-6.3296-5.4855-1.1144-24.678-16.779-29.992-24.479-7.5034-10.872-10.491-32.914-10.338-76.259l0.14574-41.599-91.741 0.36354c-50.458 0.19938-107.7 1.0301-127.21 1.8445-47.05 1.9647-47.427 2.1668-57.484 30.812-4.1929 11.943-9.6102 34.136-12.039 49.317-2.4287 15.181-5.4643 30.222-6.7462 33.423-1.2819 3.2014-3.3688 16.218-4.6375 28.926-1.268 12.708-4.5003 29.688-7.1828 37.733-3.5033 10.508-5.3291 23.566-6.4832 46.374-0.8831 17.461-2.7798 33.758-4.2148 36.217-5.5497 9.509-7.469 43.002-8.0858 141.12-0.67111 106.73 1.1117 137.43 8.7893 151.36 2.2346 4.0555 4.3499 9.7695 4.6991 12.698 1.1647 9.7536 12.331 17.609 29.863 21.008 118.07 15.913 212.86 20.969 330.93 22.57 36.786 0.87005 32.808-3.3362 58.234-16.663zm-408.85-159.45c0.13912-3.027 19.948-16.177 24.604-16.334 3.3946-0.11196 3.2422-0.47927-0.85329-2.0477-9.4763-3.6282-8.6707-19.268 1.0322-20.01 9.8752-0.75476 158.51-2.1131 247.25-2.2591 136.59-0.22579 156.82 2.0829 156.82 17.887 0 12.331-5.8385 13.712-55.937 13.232-24.408-0.23271-62.54 0.60947-84.736 1.8739-22.196 1.2644-86.018 3.3471-141.83 4.6281-55.808 1.2811-111.59 2.9286-123.95 3.661-12.793 0.75715-22.446 0.48431-22.395-0.63211zm282.41-137.45c-4.0717-2.9764-18.531-3.2139-123.38-2.0258-65.321 0.73997-124.73 0.63085-132.03-0.24341-12.505-1.4979-13.26-1.9294-13.26-7.5805 0-3.2956 1.4721-7.9046 3.2707-10.242 3.1045-4.0348 8.095-4.3423 98.587-6.0769 52.424-1.0049 142.58-1.9902 200.35-2.1894 97.052-0.33524 105.51-0.0667 111.27 3.5196 8.2945 5.1624 8.2938 13.348 0 18.509-5.0953 3.1701-13.869 4.1766-47.852 5.489-22.887 0.88363-53.028 2.193-66.98 2.9091-20.814 1.0683-26.195 0.69651-29.98-2.0694zm4.6123-106.86c-24.099-1.0595-92.072-1.3918-151.05-0.73903-85.694 0.94898-108 0.6189-111.04-1.6439-5.7359-4.2721-1.1183-25.333 5.8439-26.652 2.6818-0.50821 79.076-1.5007 169.76-2.206 147.92-1.1499 165.42-0.92615 170.08 2.1758 9.8506 6.5635 4.4493 20.724-7.9042 20.724-3.488 0-7.6737 2.2072-10.38 5.4734-3.5039 4.2294-6.4626 5.3963-13.015 5.1335-4.6646-0.18807-28.198-1.2069-52.297-2.2664zm174.11-63.08c0-9.4063-2.002-14.271-14.191-34.483-15.265-25.312-44.464-66.532-55.979-79.024-3.8968-4.2279-13.166-11.945-20.6-17.149-11.467-8.0292-15.173-9.4619-24.473-9.4619h-10.96l-4.929 21.977c-6.6137 29.486-6.9217 75.454-0.59624 88.678 8.9178 18.638 29.104 28.808 65.667 33.085 14.137 1.6536 31.93 3.8532 39.54 4.8885 27.27 3.7096 26.521 3.9502 26.521-8.5109z"
     fill="#f00"
     stroke-width="2.247"
     id="path14"
     style="fill:#007af4;fill-opacity:1" />
</svg>
