<?xml version="1.0" encoding="UTF-8" standalone="no"?>
<svg
   xmlns:dc="http://purl.org/dc/elements/1.1/"
   xmlns:cc="http://creativecommons.org/ns#"
   xmlns:rdf="http://www.w3.org/1999/02/22-rdf-syntax-ns#"
   xmlns:svg="http://www.w3.org/2000/svg"
   xmlns="http://www.w3.org/2000/svg"
   xmlns:sodipodi="http://sodipodi.sourceforge.net/DTD/sodipodi-0.dtd"
   xmlns:inkscape="http://www.inkscape.org/namespaces/inkscape"
   data-name="Calque 1"
   version="1.1"
   viewBox="0 0 124 124"
   id="svg34"
   sodipodi:docname="logo-extra-small.svg"
   inkscape:version="1.0.2 (e86c870879, 2021-01-15)"
   inkscape:export-filename="/mnt/668D831B02B7FF13/recoil-model/logo/SVG/logo-extra-small.png"
   inkscape:export-xdpi="96"
   inkscape:export-ydpi="96">
  <sodipodi:namedview
     pagecolor="#ffffff"
     bordercolor="#666666"
     borderopacity="1"
     objecttolerance="10"
     gridtolerance="10"
     guidetolerance="10"
     inkscape:pageopacity="0"
     inkscape:pageshadow="2"
     inkscape:window-width="1440"
     inkscape:window-height="837"
     id="namedview36"
     showgrid="false"
     inkscape:zoom="3.7903226"
     inkscape:cx="12.004255"
     inkscape:cy="62"
     inkscape:window-x="0"
     inkscape:window-y="30"
     inkscape:window-maximized="1"
     inkscape:current-layer="svg34"
     inkscape:document-rotation="0" />
  <metadata
     id="metadata20">
    <rdf:RDF>
      <cc:Work
         rdf:about="">
        <dc:format>image/svg+xml</dc:format>
        <dc:type
           rdf:resource="http://purl.org/dc/dcmitype/StillImage" />
        <dc:title />
      </cc:Work>
    </rdf:RDF>
  </metadata>
  <defs
     id="defs30">
    <style
       id="style22">.cls-1,.cls-2{fill:none;}.cls-2{stroke:#007af4;stroke-miterlimit:10;stroke-width:8px;}.cls-3{fill:#007af4;}.cls-4{clip-path:url(#clip-path);}.cls-5{clip-path:url(#clip-path-2);}</style>
    <clipPath
       id="clip-path">
      <path
         class="cls-1"
         d="M43.6,55.1a24.5,24.5,0,0,1,10-3.2l7.9-.74A20.9,20.9,0,0,1,50.9,33V32H38.4V59.37A20.52,20.52,0,0,1,43.6,55.1Z"
         id="path24" />
    </clipPath>
    <clipPath
       id="clip-path-2">
      <path
         class="cls-1"
         d="M80.4,69.22a24.55,24.55,0,0,1-10,3.2l-7.9.74A20.87,20.87,0,0,1,73,89H85.6V64.94A20.73,20.73,0,0,1,80.4,69.22Z"
         id="path27" />
    </clipPath>
  </defs>
  <path
     d="m54.608 116.16c-1.9307-0.17589-4.0772-0.49737-4.7699-0.71436-0.69267-0.21667-3.6492-0.52606-6.5703-0.68672-3.0951-0.1701-5.9746-0.52122-6.9015-0.84124-0.87479-0.30212-2.8844-0.66046-4.4657-0.79651-2.741-0.23593-2.9576-0.3206-4.6444-1.8185-1.2453-1.1059-1.956-2.1128-2.3998-3.4004-0.34676-1.0061-1.0136-2.5558-1.4818-3.4439-0.46818-0.88805-0.97412-2.2438-1.1243-3.0129-0.15017-0.76904-0.58392-2.2607-0.96394-3.3147-0.47814-1.3264-0.69095-2.9318-0.69095-5.2142 0-1.8138-0.26054-4.8593-0.57888-6.768-0.48308-2.8964-0.55699-6.5473-0.44641-22.08 4.151-20.067-1.3102-46.647 17.826-57.037 6.7711-1.6151 14.621-0.8227 22.52-0.96006 11.853-0.20613 23.815-0.51863 32.402 1.6884 3.2203 2.0058 8.7857 8.8475 13.43 16.51l1.8438 3.0419 0.20507 16.872c0.11295 9.2797 0.0697 25.647-0.0954 36.371l-0.3 19.499-2.687 5.1368c-1.4779 2.8252-2.9145 5.4029-3.1925 5.7282-0.57297 0.67049-6.3292 2.9054-8.8682 3.4433-3.279 0.6946-12.24 1.4262-19.788 1.6154-4.2097 0.10584-9.25 0.26172-11.201 0.34754-1.9508 0.0854-5.1266 0.0115-7.0574-0.16433zm40.782-8.412c2.0393-1.0537 2.9859-2.5363 5.0652-7.9323 1.9871-5.157 2.2786-7.7181 2.2792-20.018 0.40145-11.653 1.1187-20.48 1.1205-27.448 0-8.5427-0.13579-15.612-0.30204-15.709-0.16615-0.09755-2.4763-0.27737-5.1337-0.39975-2.9499-0.13586-6.4312-0.56212-8.9386-1.0945-2.2588-0.47961-4.4453-0.94073-4.8588-1.0248-0.88809-0.18042-3.9954-2.7166-4.8557-3.9632-1.2148-1.7602-1.6985-5.3287-1.6737-12.346l0.02362-6.7348-14.853 0.05888c-8.1691 0.03229-17.437 0.16677-20.595 0.29862-7.6175 0.31808-7.6784 0.3508-9.3066 4.9885-0.67884 1.9336-1.5559 5.5266-1.9491 7.9844-0.39321 2.4578-0.88467 4.8929-1.0922 5.4112-0.20755 0.5183-0.54541 2.6257-0.7508 4.6832-0.2053 2.0574-0.72861 4.8065-1.1629 6.1089-0.56719 1.7013-0.86278 3.8154-1.0496 7.5079-0.14297 2.8269-0.45006 5.4654-0.68238 5.8635-0.8985 1.5395-1.2092 6.962-1.3091 22.848-0.10865 17.279 0.17998 22.249 1.423 24.505 0.36177 0.65658 0.70425 1.5817 0.76078 2.0558 0.18856 1.5791 1.9964 2.8509 4.8348 3.4011 19.115 2.5763 34.462 3.3949 53.577 3.6541 5.9557 0.14086 5.3116-0.54013 9.4281-2.6977zm-66.193-25.815c0.0225-0.49008 3.2295-2.6191 3.9833-2.6445 0.54959-0.01811 0.52492-0.07758-0.13815-0.33151-1.5342-0.5874-1.4038-3.1195 0.16711-3.2396 1.5988-0.12219 25.662-0.3421 40.03-0.36574 22.113-0.0365 25.389 0.33722 25.389 2.8959 0 1.9963-0.94525 2.2199-9.0562 2.1423-3.9517-0.03772-10.125 0.09868-13.719 0.30338-3.5936 0.20471-13.926 0.5419-22.962 0.74929-9.0353 0.20741-18.066 0.47414-20.068 0.59272-2.0711 0.12258-3.634 0.07842-3.6257-0.10234zm45.722-22.253c-0.65921-0.48188-3.0001-0.52033-19.975-0.32798-10.575 0.1198-20.194 0.10214-21.375-0.03938-2.0246-0.24251-2.1469-0.31236-2.1469-1.2273 0-0.53356 0.23832-1.2798 0.52953-1.6582 0.50261-0.65322 1.3106-0.70302 15.961-0.98384 8.4874-0.1627 23.084-0.32222 32.437-0.35447 15.713-0.05426 17.082-0.01083 18.015 0.56982 1.3429 0.83578 1.3428 2.161 0 2.9966-0.82493 0.51324-2.2453 0.67619-7.7472 0.88866-3.7054 0.14307-8.5852 0.35505-10.844 0.47098-3.3698 0.17296-4.241 0.11277-4.8537-0.33503zm0.74674-17.301c-3.9016-0.17153-14.906-0.22534-24.455-0.11965-13.874 0.15364-17.485 0.1002-17.977-0.26614-0.92864-0.69165-0.18105-4.1013 0.94612-4.3149 0.43418-0.08227 12.802-0.24296 27.485-0.35715 23.949-0.18616 26.782-0.14994 27.535 0.35227 1.5948 1.0626 0.72035 3.3553-1.2797 3.3553-0.56471 0-1.2424 0.35735-1.6805 0.88615-0.56728 0.68473-1.0463 0.87365-2.1072 0.83111-0.75521-0.03045-4.5653-0.1954-8.4669-0.36694zm28.189-10.213c0-1.5229-0.32413-2.3105-2.2975-5.5828-2.4714-4.0981-7.1987-10.772-9.063-12.794-0.63089-0.68449-2.1316-1.9339-3.3351-2.7764-1.8565-1.2999-2.4565-1.5319-3.9622-1.5319h-1.7745l-0.798 3.5581c-1.0708 4.7737-1.1206 12.216-0.09654 14.357 1.4438 3.0175 4.7119 4.6641 10.631 5.3564 2.2888 0.26772 5.1694 0.62384 6.4015 0.79145 4.415 0.60059 4.2937 0.63953 4.2937-1.3779z"
     fill="#f00"
     stroke-width=".36379"
     id="path32"
     style="fill:#007af4;fill-opacity:1" />
</svg>
