<?xml version="1.0" encoding="UTF-8" standalone="no"?>
<svg
   xmlns:dc="http://purl.org/dc/elements/1.1/"
   xmlns:cc="http://creativecommons.org/ns#"
   xmlns:rdf="http://www.w3.org/1999/02/22-rdf-syntax-ns#"
   xmlns:svg="http://www.w3.org/2000/svg"
   xmlns="http://www.w3.org/2000/svg"
   xmlns:sodipodi="http://sodipodi.sourceforge.net/DTD/sodipodi-0.dtd"
   xmlns:inkscape="http://www.inkscape.org/namespaces/inkscape"
   id="Calque_1"
   data-name="Calque 1"
   viewBox="0 0 300 300"
   version="1.1"
   sodipodi:docname="logo-small.svg"
   inkscape:version="1.0.2 (e86c870879, 2021-01-15)"
   inkscape:export-filename="/mnt/668D831B02B7FF13/recoil-model/logo/SVG/logo-small.png"
   inkscape:export-xdpi="96"
   inkscape:export-ydpi="96">
  <metadata
     id="metadata29">
    <rdf:RDF>
      <cc:Work
         rdf:about="">
        <dc:format>image/svg+xml</dc:format>
        <dc:type
           rdf:resource="http://purl.org/dc/dcmitype/StillImage" />
      </cc:Work>
    </rdf:RDF>
  </metadata>
  <sodipodi:namedview
     pagecolor="#ffffff"
     bordercolor="#666666"
     borderopacity="1"
     objecttolerance="10"
     gridtolerance="10"
     guidetolerance="10"
     inkscape:pageopacity="0"
     inkscape:pageshadow="2"
     inkscape:window-width="1440"
     inkscape:window-height="837"
     id="namedview27"
     showgrid="false"
     inkscape:zoom="1.5666667"
     inkscape:cx="84.562584"
     inkscape:cy="173.82394"
     inkscape:window-x="0"
     inkscape:window-y="30"
     inkscape:window-maximized="1"
     inkscape:current-layer="Calque_1"
     inkscape:document-rotation="0" />
  <defs
     id="defs10">
    <style
       id="style2">.cls-1,.cls-2{fill:none;}.cls-2{stroke:#007af4;stroke-miterlimit:10;stroke-width:16px;}.cls-3{fill:#007af4;}.cls-4{clip-path:url(#clip-path);}.cls-5{clip-path:url(#clip-path-2);}</style>
    <clipPath
       id="clip-path">
      <path
         class="cls-1"
         d="M194.23,163.43A56.9,56.9,0,0,1,171,170.87l-37.76,3.56a12.29,12.29,0,0,0-5.1,1.64,1.89,1.89,0,0,0-.41.29,3.47,3.47,0,0,0,0,.56,1.42,1.42,0,0,0,.24.56s.16,0,.45.08l2.5.32a47.66,47.66,0,0,1,41.29,41.4h38.23V147.72A45.75,45.75,0,0,1,194.23,163.43Z"
         id="path4" />
    </clipPath>
    <clipPath
       id="clip-path-2">
      <path
         class="cls-1"
         d="M105.77,137.38A57,57,0,0,1,129,129.94l37.76-3.56a12.42,12.42,0,0,0,5.1-1.63,1.66,1.66,0,0,0,.41-.3,3.47,3.47,0,0,0,0-.56,1.49,1.49,0,0,0-.24-.56s-.16,0-.45-.08l-2.5-.31a47.66,47.66,0,0,1-41.65-47.21V73.2H89.54v79.9A45.69,45.69,0,0,1,105.77,137.38Z"
         id="path7" />
    </clipPath>
  </defs>
  <path
     d="m 132.71489,268.53361 c -4.2993,-0.39167 -9.07915,-1.10754 -10.62166,-1.59074 -1.54244,-0.48248 -8.12607,-1.17144 -14.63081,-1.5292 -6.89219,-0.37878 -13.304293,-1.16065 -15.368326,-1.87328 -1.947991,-0.67276 -6.42301,-1.47072 -9.944264,-1.77367 -6.103685,-0.52537 -6.586012,-0.71392 -10.342195,-4.04946 -2.773046,-2.46262 -4.355639,-4.7048 -5.343897,-7.57204 -0.772169,-2.24039 -2.257095,-5.69128 -3.299687,-7.66891 -1.042548,-1.97752 -2.16918,-4.99652 -2.503602,-6.70915 -0.3344,-1.71251 -1.300279,-5.03415 -2.146511,-7.38121 -1.064727,-2.95364 -1.538614,-6.52856 -1.538614,-11.61103 0,-4.03899 -0.580173,-10.82074 -1.289056,-15.07105 -1.075727,-6.44973 -1.24031,-14.57959 -0.99407,-49.16796 9.243487,-44.68539 -2.917566,-103.873984 39.695109,-127.010536 15.077953,-3.59652 32.558183,-1.831996 50.147753,-2.137871 26.39438,-0.459012 53.03148,-1.15489 72.15309,3.759746 7.171,4.466534 19.56408,19.701698 29.90606,36.764627 l 4.10579,6.773733 0.45665,37.570731 c 0.25152,20.66412 0.15521,57.11098 -0.21244,80.99129 l -0.66804,43.42056 -5.98344,11.43868 c -3.291,6.29118 -6.49004,12.03123 -7.10909,12.75561 -1.27589,1.49305 -14.09392,6.46977 -19.74779,7.66757 -7.30171,1.54675 -27.25615,3.17588 -44.06411,3.59719 -9.3742,0.23569 -20.59799,0.5828 -24.9425,0.77391 -4.34406,0.19017 -11.41596,0.0256 -15.71548,-0.36593 z m 90.81375,-18.73192 c 4.54114,-2.34639 6.64903,-5.64786 11.27924,-17.66372 4.42489,-11.48366 5.07401,-17.18674 5.07534,-44.57628 0.89396,-25.94901 2.49114,-45.60506 2.49514,-61.12147 0,-19.02297 -0.30237,-34.764948 -0.67258,-34.980949 -0.36999,-0.217337 -5.51425,-0.61765 -11.43177,-0.890167 -6.56887,-0.302534 -14.32106,-1.251734 -19.90456,-2.437243 -5.02992,-1.068 -9.89884,-2.094827 -10.81963,-2.282035 -1.97761,-0.401761 -8.89699,-6.049351 -10.81272,-8.825292 -2.70513,-3.91963 -3.78223,-11.866001 -3.72701,-27.492192 l 0.0525,-14.997118 -33.0748,0.131159 c -18.19103,0.07193 -38.82888,0.371365 -45.86115,0.66497 -16.962721,0.708304 -17.098334,0.781165 -20.724025,11.10844 -1.511648,4.305759 -3.464693,12.306686 -4.340275,17.779739 -0.875604,5.473053 -1.969992,10.895557 -2.432121,12.049713 -0.462175,1.154155 -1.214525,5.846934 -1.671889,10.428595 -0.457164,4.581438 -1.622476,10.70316 -2.589557,13.60335 -1.263024,3.78847 -1.921247,8.49617 -2.33726,16.71867 -0.318367,6.29497 -1.002198,12.1704 -1.51953,13.0569 -2.000788,3.42817 -2.692658,15.50305 -2.915116,50.87814 -0.241943,38.47705 0.400781,49.54429 3.16875,54.56797 0.805593,1.46208 1.56823,3.52215 1.694112,4.57788 0.419887,3.51636 4.445603,6.34841 10.766179,7.5736 42.565472,5.73693 76.740322,7.5598 119.305782,8.13699 13.26221,0.31367 11.82793,-1.20277 20.99459,-6.00727 z M 76.129428,192.3166 c 0.0501,-1.09132 7.191482,-5.83224 8.870051,-5.8888 1.223832,-0.0403 1.168897,-0.1728 -0.307634,-0.73821 -3.416372,-1.30803 -3.125996,-6.94653 0.372122,-7.21397 3.560223,-0.2721 57.144393,-0.76179 89.139193,-0.81444 49.24144,-0.0813 56.53647,0.75093 56.53647,6.44862 0,4.44538 -2.10489,4.9433 -20.16643,4.7705 -8.79969,-0.084 -22.54645,0.21978 -30.5496,0.67557 -8.00227,0.45585 -31.01056,1.20671 -51.13201,1.66852 -20.11989,0.46187 -40.229544,1.05582 -44.687617,1.31988 -4.611945,0.27296 -8.092226,0.17458 -8.073744,-0.22789 z M 177.94362,142.7634 c -1.46793,-1.07305 -6.68065,-1.15867 -44.48052,-0.73035 -23.54851,0.26678 -44.968198,0.22745 -47.59806,-0.0877 -4.508399,-0.54003 -4.780738,-0.69557 -4.780738,-2.73297 0,-1.18813 0.530693,-2.84987 1.179162,-3.69249 1.119217,-1.4546 2.918457,-1.56549 35.542116,-2.19083 18.89982,-0.3623 51.40367,-0.71752 72.23102,-0.78933 34.98986,-0.12092 38.03836,-0.024 40.11598,1.26888 2.99038,1.86112 2.99016,4.81213 0,6.67286 -1.83696,1.14288 -4.99986,1.50574 -17.25154,1.97887 -8.25122,0.31859 -19.11761,0.79063 -24.14753,1.04878 -7.5039,0.38515 -9.4439,0.25112 -10.80826,-0.74604 z m 1.66285,-38.52603 c -8.68812,-0.38197 -33.19282,-0.50179 -54.45663,-0.26644 -30.894763,0.34213 -38.93577,0.22313 -40.031361,-0.59264 -2.067904,-1.54017 -0.403164,-9.132812 2.10683,-9.608459 0.966836,-0.183266 28.507621,-0.541026 61.203871,-0.795305 53.32986,-0.414543 59.63841,-0.333888 61.3152,0.784438 3.55132,2.366208 1.60408,7.471606 -2.84965,7.471606 -1.2575,0 -2.76659,0.79576 -3.74215,1.97329 -1.26323,1.52477 -2.32991,1.94545 -4.69234,1.85073 -1.6817,-0.0679 -10.16605,-0.43512 -18.85417,-0.81711 z m 62.77154,-22.742404 c 0,-3.391209 -0.72178,-5.145044 -5.1161,-12.431833 -5.50333,-9.125689 -16.03013,-23.987194 -20.18157,-28.489803 -1.40488,-1.524229 -4.74667,-4.306427 -7.42664,-6.182515 -4.13407,-2.894629 -5.47015,-3.411249 -8.82306,-3.411249 h -3.95148 l -1.77699,7.923211 c -2.38447,10.630122 -2.49536,27.202707 -0.21489,31.970307 3.21507,6.719398 10.49251,10.386063 23.67322,11.927683 5.09672,0.596161 11.51127,1.389173 14.25492,1.762409 9.83136,1.337399 9.56125,1.424111 9.56125,-3.068322 z"
     fill="#ff0000"
     stroke-width="0.810091"
     id="path14"
     style="fill:#007af4;fill-opacity:1" />
</svg>
